<svg xmlns="http://www.w3.org/2000/svg" xmlns:xlink="http://www.w3.org/1999/xlink" width="732.635" height="712.032" viewBox="0 0 732.635 712.032">
  <defs>
    <linearGradient id="linear-gradient" x1="0.422" y1="0.514" x2="0.352" y2="0.835" gradientUnits="objectBoundingBox">
      <stop offset="0" stop-color="#40447e"/>
      <stop offset="0.996" stop-color="#3c3b6b"/>
    </linearGradient>
    <linearGradient id="linear-gradient-2" x1="0.479" y1="0.466" x2="0.369" y2="0.525" xlink:href="#linear-gradient"/>
    <linearGradient id="linear-gradient-3" x1="0" y1="0.5" x2="1" y2="0.5" xlink:href="#linear-gradient"/>
    <linearGradient id="linear-gradient-6" x1="0.835" y1="-0.203" x2="-0.138" y2="1.782" gradientUnits="objectBoundingBox">
      <stop offset="0" stop-color="#aa80f9"/>
      <stop offset="0.996" stop-color="#6165d7"/>
    </linearGradient>
    <linearGradient id="linear-gradient-7" x1="0.414" y1="-2.198" x2="0.583" y2="3.531" xlink:href="#linear-gradient-6"/>
    <linearGradient id="linear-gradient-8" x1="0.5" y1="2.076" x2="0.5" y2="0.226" xlink:href="#linear-gradient-6"/>
    <linearGradient id="linear-gradient-10" x1="0.329" y1="0.554" x2="-0.255" y2="0.738" gradientUnits="objectBoundingBox">
      <stop offset="0" stop-color="#fcb148"/>
      <stop offset="0.052" stop-color="#fdb946"/>
      <stop offset="0.142" stop-color="#fec144"/>
      <stop offset="0.318" stop-color="#ffc444"/>
      <stop offset="0.485" stop-color="#fdb946"/>
      <stop offset="0.775" stop-color="#f99c4c"/>
      <stop offset="0.866" stop-color="#f8924f"/>
      <stop offset="1" stop-color="#f8924f"/>
    </linearGradient>
    <linearGradient id="linear-gradient-11" x1="0.727" y1="0.007" x2="0.207" y2="1.135" gradientUnits="objectBoundingBox">
      <stop offset="0" stop-color="#ffdb44"/>
      <stop offset="1" stop-color="#feef06"/>
    </linearGradient>
    <linearGradient id="linear-gradient-12" x1="0.636" y1="1.231" x2="0.531" y2="0.666" xlink:href="#linear-gradient-10"/>
    <linearGradient id="linear-gradient-13" x1="0.409" y1="0.31" x2="0.858" y2="1.247" xlink:href="#linear-gradient-10"/>
    <linearGradient id="linear-gradient-14" x1="0.253" y1="0.019" x2="0.711" y2="1.039" xlink:href="#linear-gradient-11"/>
    <linearGradient id="linear-gradient-15" x1="0.464" y1="0.369" x2="1.215" y2="1.306" xlink:href="#linear-gradient-10"/>
    <linearGradient id="linear-gradient-16" x1="0.278" y1="1.028" x2="0.771" y2="0.051" gradientUnits="objectBoundingBox">
      <stop offset="0" stop-color="#311944"/>
      <stop offset="1" stop-color="#893976"/>
    </linearGradient>
    <linearGradient id="linear-gradient-17" x1="0.405" y1="0.935" x2="0.732" y2="0.104" xlink:href="#linear-gradient-16"/>
    <linearGradient id="linear-gradient-18" x1="-0.451" y1="0.03" x2="2.864" y2="1.813" gradientUnits="objectBoundingBox">
      <stop offset="0" stop-color="#ffc444"/>
      <stop offset="0.996" stop-color="#f36f56"/>
    </linearGradient>
    <linearGradient id="linear-gradient-19" x1="0.497" y1="-0.747" x2="0.486" y2="-7.554" xlink:href="#linear-gradient-6"/>
    <linearGradient id="linear-gradient-20" x1="-102.555" y1="1.806" x2="-102.493" y2="-2.491" xlink:href="#linear-gradient-18"/>
    <linearGradient id="linear-gradient-21" x1="0.496" y1="-1.686" x2="0.485" y2="-8.493" xlink:href="#linear-gradient-6"/>
    <linearGradient id="linear-gradient-22" x1="-102.456" y1="0.741" x2="-102.394" y2="-3.556" xlink:href="#linear-gradient-18"/>
    <linearGradient id="linear-gradient-23" x1="0.228" y1="0.162" x2="0.85" y2="0.831" xlink:href="#linear-gradient-16"/>
    <linearGradient id="linear-gradient-24" x1="-19.549" y1="0.467" x2="-18.52" y2="0.467" xlink:href="#linear-gradient-16"/>
    <linearGradient id="linear-gradient-25" x1="-15.111" y1="0.456" x2="-13.902" y2="0.456" xlink:href="#linear-gradient-16"/>
    <linearGradient id="linear-gradient-26" x1="0.486" y1="0.282" x2="0.972" y2="3.745" xlink:href="#linear-gradient-18"/>
    <linearGradient id="linear-gradient-27" x1="-5.895" y1="2.1" x2="-5.497" y2="3.923" xlink:href="#linear-gradient-18"/>
    <linearGradient id="linear-gradient-28" x1="-5.97" y1="1.519" x2="-7.299" y2="0.058" xlink:href="#linear-gradient-18"/>
    <linearGradient id="linear-gradient-29" x1="1.427" y1="-2.638" x2="0.272" y2="1.127" xlink:href="#linear-gradient-18"/>
    <linearGradient id="linear-gradient-30" x1="-11.173" y1="2.45" x2="-10.448" y2="4.659" xlink:href="#linear-gradient-18"/>
    <linearGradient id="linear-gradient-31" x1="-31.546" y1="15.4" x2="-31.546" y2="14.003" xlink:href="#linear-gradient-18"/>
    <linearGradient id="linear-gradient-32" x1="-33.134" y1="1.457" x2="-33.851" y2="-0.129" gradientUnits="objectBoundingBox">
      <stop offset="0" stop-color="#444b8c"/>
      <stop offset="0.996" stop-color="#3e4177"/>
    </linearGradient>
    <linearGradient id="linear-gradient-33" x1="-81.515" y1="28.455" x2="-80.387" y2="26.079" xlink:href="#linear-gradient-18"/>
  </defs>
  <g id="Grupo_334" data-name="Grupo 334" transform="translate(-638.867 -155.749)">
    <g id="Grupo_312" data-name="Grupo 312" transform="translate(638.867 431.833)">
      <path id="Caminho_509" data-name="Caminho 509" d="M1391.564,2593.286l-725.386-6.376v18.865c0,5.12,3.164,9.474,7.449,10.25l205.118,37.148a27.955,27.955,0,0,0,7.359.349l497.578-42.354c4.442-.378,7.883-4.746,7.883-10.006Z" transform="translate(-658.929 -2217.673)" fill="url(#linear-gradient)"/>
      <g id="Grupo_311" data-name="Grupo 311" transform="translate(0 0)">
        <path id="Caminho_510" data-name="Caminho 510" d="M1108.262,1540.891,653.618,1575.4c-8.136.617-14.751-5.944-14.751-14.658V1211.638c0-8.714,6.615-15.778,14.751-15.778h454.645c6.7,0,12.121,6.386,12.121,14.263v315.586C1120.384,1533.585,1114.965,1540.382,1108.262,1540.891Z" transform="translate(-638.867 -1195.86)" fill="url(#linear-gradient-2)"/>
        <path id="Caminho_511" data-name="Caminho 511" d="M1135.573,1540.891,680.929,1575.4c-8.136.617-14.751-5.944-14.751-14.658V1211.638c0-8.714,6.615-15.778,14.751-15.778h454.645c6.7,0,12.122,6.386,12.122,14.263v315.586C1147.695,1533.585,1142.276,1540.382,1135.573,1540.891Z" transform="translate(-658.929 -1195.86)" fill="url(#linear-gradient-3)"/>
        <path id="Caminho_512" data-name="Caminho 512" d="M1176.14,1574.734l-423.454,29.977c-6.62.469-12-4.917-12-12.031V1287.037c0-7.114,5.38-12.9,12-12.934l423.454-1.882c5.529-.025,10,5.208,10,11.687v278.386C1186.141,1568.773,1181.669,1574.342,1176.14,1574.734Z" transform="translate(-713.659 -1251.952)" fill="#d8dee8"/>
        <path id="Caminho_513" data-name="Caminho 513" d="M1609.672,1215.59c0,3.244-2.34,5.881-5.229,5.89s-5.241-2.618-5.241-5.869,2.348-5.888,5.241-5.891S1609.672,1212.346,1609.672,1215.59Z" transform="translate(-1344.293 -1206.041)" fill="#fff"/>
        <path id="Caminho_514" data-name="Caminho 514" d="M1026.034,1445.144c-35.049-20.256-62.608,5.41-89.2-19.913-16.124-15.353-8.208-26.8-28.049-49.745-21.975-25.412-36.282-16.869-58.367-39.74-27.925-28.918-13.958-51.418-38.012-72.18-29.18-25.188-60.65-1.875-88.427-26.031-11.981-10.419-18.554-25.565-21.987-41.674H674.808c-4.763,0-8.63,4.146-8.63,9.261V1567c0,5.115,3.868,8.966,8.63,8.6l463.358-35.328a7.407,7.407,0,0,0,5.584-3.667c-33.919-1.328-54.757-13.541-68.078-26.167C1049.614,1485.741,1054.134,1461.383,1026.034,1445.144Z" transform="translate(-658.929 -1195.86)" fill="#fff" opacity="0.48" style="mix-blend-mode: soft-light;isolation: isolate"/>
      </g>
      <path id="Caminho_515" data-name="Caminho 515" d="M1153.694,2489.545l-487.516,36.326,212.566,38.5a27.945,27.945,0,0,0,7.359.349l505.46-43.026-230.114-31.9A36.594,36.594,0,0,0,1153.694,2489.545Z" transform="translate(-658.929 -2146.079)" fill="url(#linear-gradient-3)"/>
      <path id="Caminho_516" data-name="Caminho 516" d="M934.175,2545.18l405.872-30.693,125.614,17.272-402.375,32.809Z" transform="translate(-855.789 -2164.475)" opacity="0.3" fill="url(#linear-gradient-3)" style="mix-blend-mode: multiply;isolation: isolate"/>
    </g>
    <g id="Grupo_325" data-name="Grupo 325" transform="translate(717.253 294.038)">
      <g id="Grupo_322" data-name="Grupo 322">
        <g id="Grupo_314" data-name="Grupo 314">
          <path id="Caminho_517" data-name="Caminho 517" d="M1355.206,689.789,958.318,676.747A23.275,23.275,0,0,0,934.175,700.2v386.825a23,23,0,0,0,24.143,23.214l396.887-16.947c11.48-.49,20.75-10.908,20.75-23.272V712.856C1375.955,700.493,1366.685,690.166,1355.206,689.789Z" transform="translate(-934.175 -676.733)" fill="url(#linear-gradient-6)"/>
          <path id="Caminho_518" data-name="Caminho 518" d="M979.713,1123.877a15.66,15.66,0,0,1-16.412-15.8V721.768A15.844,15.844,0,0,1,979.713,705.8L1376.6,718.313c7.82.246,14.142,7.277,14.142,15.7v357.605c0,8.426-6.322,15.518-14.142,15.841Z" transform="translate(-955.57 -698.082)" fill="#fff" opacity="0.74" style="mix-blend-mode: soft-light;isolation: isolate"/>
          <path id="Caminho_519" data-name="Caminho 519" d="M1355.206,689.789,958.318,676.747A23.275,23.275,0,0,0,934.175,700.2V717.59l441.781,11.324V712.856C1375.956,700.493,1366.686,690.166,1355.206,689.789Z" transform="translate(-934.175 -676.733)" fill="url(#linear-gradient-7)"/>
          <path id="Caminho_520" data-name="Caminho 520" d="M1052.512,738.52a7.594,7.594,0,0,1-7.828,7.659,8.145,8.145,0,0,1-7.849-8.115,7.593,7.593,0,0,1,7.849-7.658A8.146,8.146,0,0,1,1052.512,738.52Z" transform="translate(-1009.585 -716.156)" fill="#fff"/>
          <path id="Caminho_521" data-name="Caminho 521" d="M1155.867,741.622a7.54,7.54,0,0,1-7.753,7.624,8.086,8.086,0,0,1-7.775-8.075,7.538,7.538,0,0,1,7.775-7.623A8.087,8.087,0,0,1,1155.867,741.622Z" transform="translate(-1085.616 -718.464)" fill="#fff"/>
          <path id="Caminho_522" data-name="Caminho 522" d="M1258.238,744.694a7.487,7.487,0,0,1-7.68,7.589,8.029,8.029,0,0,1-7.7-8.036,7.485,7.485,0,0,1,7.7-7.588A8.031,8.031,0,0,1,1258.238,744.694Z" transform="translate(-1160.922 -720.75)" fill="#fff"/>
          <g id="Grupo_313" data-name="Grupo 313" opacity="0.5" style="mix-blend-mode: soft-light;isolation: isolate">
            <path id="Caminho_523" data-name="Caminho 523" d="M1200.933,838.5c-46.356-67.453-126.592-45.991-177.35-120.519a163.133,163.133,0,0,1-19.626-39.73l-45.639-1.5A23.275,23.275,0,0,0,934.175,700.2v386.825a23,23,0,0,0,24.143,23.214l382.352-16.327c-8.759-12.632-85.048-59.424-104.756-131.266C1217.892,896.944,1228.9,879.192,1200.933,838.5Z" transform="translate(-934.175 -676.733)" fill="#fff"/>
          </g>
        </g>
        <g id="Grupo_321" data-name="Grupo 321" transform="translate(29.601 92.322)">
          <path id="Caminho_524" data-name="Caminho 524" d="M1436.3,1226.06l-390.609-.467v-12.766l390.609,1.583Z" transform="translate(-1045.693 -1162.85)" fill="#fff"/>
          <path id="Caminho_525" data-name="Caminho 525" d="M1436.3,1060.592l-390.609-3.321v-32.726l390.609,6.181Z" transform="translate(-1045.693 -1024.545)" fill="#fff"/>
          <g id="Grupo_316" data-name="Grupo 316" transform="translate(8.635 83.038)">
            <g id="Grupo_315" data-name="Grupo 315">
              <path id="Caminho_526" data-name="Caminho 526" d="M1130.036,1386.574l-51.811.305v-49.5l51.811.063Zm-45.766-6.476,37.995-.184v-35.767l-37.995-.014Z" transform="translate(-1078.225 -1337.382)" fill="#fff"/>
            </g>
            <path id="Caminho_527" data-name="Caminho 527" d="M1654.766,1350.889l-300.021.174v-13.357l300.021.316Z" transform="translate(-1281.347 -1337.62)" fill="#fff"/>
            <path id="Caminho_528" data-name="Caminho 528" d="M1654.766,1431.839l-300.021.964v-12.615l300.021-.5Z" transform="translate(-1281.347 -1397.84)" fill="#fff"/>
          </g>
          <g id="Grupo_318" data-name="Grupo 318" transform="translate(8.635 153.494)">
            <g id="Grupo_317" data-name="Grupo 317" transform="translate(0 2.556)">
              <path id="Caminho_529" data-name="Caminho 529" d="M1130.036,1661.576l-51.811.852v-49.5l51.811-.484Zm-45.766-6,37.995-.59v-35.767l-37.995.391Z" transform="translate(-1078.225 -1612.446)" fill="#fff"/>
            </g>
            <path id="Caminho_530" data-name="Caminho 530" d="M1654.766,1615.683l-300.021,2.842v-13.357l300.021-2.352Z" transform="translate(-1281.347 -1602.816)" fill="#fff"/>
            <path id="Caminho_531" data-name="Caminho 531" d="M1654.766,1695.76l-300.021,3.632v-12.615l300.021-3.169Z" transform="translate(-1281.347 -1662.163)" fill="#fff"/>
          </g>
          <g id="Grupo_320" data-name="Grupo 320" transform="translate(8.635 223.549)">
            <g id="Grupo_319" data-name="Grupo 319" transform="translate(0 5.452)">
              <path id="Caminho_532" data-name="Caminho 532" d="M1130.036,1936.405l-51.811,1.4v-49.5l51.811-1.03Zm-45.766-4.766,37.995-1v-36.512l-37.995.8Z" transform="translate(-1078.225 -1887.276)" fill="#fff"/>
            </g>
            <path id="Caminho_533" data-name="Caminho 533" d="M1654.766,1879.6l-300.021,5.51v-13.357l300.021-5.02Z" transform="translate(-1281.347 -1866.737)" fill="#fff"/>
            <path id="Caminho_534" data-name="Caminho 534" d="M1654.766,1959.681l-300.021,6.3v-12.615l300.021-5.837Z" transform="translate(-1281.347 -1926.084)" fill="#fff"/>
          </g>
        </g>
      </g>
      <g id="Grupo_323" data-name="Grupo 323" transform="translate(35.089 172.1)">
        <path id="Caminho_535" data-name="Caminho 535" d="M1087.523,1375.258a5.7,5.7,0,0,1-3.949-1.534L1068.012,1359a5.144,5.144,0,0,1,0-7.542,5.82,5.82,0,0,1,7.933-.018l10.8,10.246,24.937-34.32a5.686,5.686,0,0,1,7.7-1.318,5.153,5.153,0,0,1,1.388,7.363l-28.666,39.536a5.677,5.677,0,0,1-4.084,2.287C1087.856,1375.249,1087.689,1375.257,1087.523,1375.258Z" transform="translate(-1066.366 -1325.097)" fill="url(#linear-gradient-8)"/>
      </g>
      <g id="Grupo_324" data-name="Grupo 324" transform="translate(36.446 245.817)">
        <path id="Caminho_536" data-name="Caminho 536" d="M1092.637,1652.978a5.7,5.7,0,0,1-3.949-1.534l-15.562-14.724a5.144,5.144,0,0,1,0-7.542,5.82,5.82,0,0,1,7.933-.018l10.8,10.246,24.937-34.32a5.687,5.687,0,0,1,7.7-1.318,5.153,5.153,0,0,1,1.388,7.362l-28.666,39.537a5.675,5.675,0,0,1-4.084,2.287C1092.97,1652.969,1092.8,1652.977,1092.637,1652.978Z" transform="translate(-1071.48 -1602.816)" fill="url(#linear-gradient-8)"/>
      </g>
    </g>
    <g id="Grupo_329" data-name="Grupo 329" transform="translate(967.554 155.749)">
      <g id="Grupo_327" data-name="Grupo 327" transform="translate(76.152 58.295)">
        <path id="Caminho_537" data-name="Caminho 537" d="M2344.937,489.449c0,48.94-38.268,87.438-87.179,85.936-50.9-1.563-93.711-45.524-93.711-98.131s42.81-90.8,93.711-85.5C2306.669,396.851,2344.937,440.509,2344.937,489.449Z" transform="translate(-2164.047 -387.046)" fill="url(#linear-gradient-10)"/>
        <path id="Caminho_538" data-name="Caminho 538" d="M2394.729,473.551c0,48.94-38.268,87.438-87.179,85.936-50.9-1.563-93.711-45.524-93.711-98.131s42.81-90.8,93.711-85.5C2356.461,380.953,2394.729,424.611,2394.729,473.551Z" transform="translate(-2200.622 -375.368)" fill="url(#linear-gradient-11)"/>
        <path id="Caminho_539" data-name="Caminho 539" d="M2403.125,484.97c0,46.785-36.615,83.525-83.34,82.012-48.538-1.572-89.29-43.526-89.29-93.65s40.752-86.584,89.29-81.612C2366.51,396.507,2403.125,438.185,2403.125,484.97Z" transform="translate(-2212.857 -387.046)" fill="url(#linear-gradient-12)"/>
        <path id="Caminho_540" data-name="Caminho 540" d="M2409.089,493.123c0,45.241-35.43,80.727-80.59,79.21-46.852-1.573-86.141-42.094-86.141-90.451s39.289-83.58,86.141-78.836C2373.659,407.619,2409.089,447.882,2409.089,493.123Z" transform="translate(-2221.572 -395.385)" fill="url(#linear-gradient-13)"/>
        <g id="Grupo_326" data-name="Grupo 326" transform="translate(65.126 23.032)">
          <path id="Caminho_541" data-name="Caminho 541" d="M2450.74,462.16h0a4.926,4.926,0,0,1,4.348,4.833v8.329a122.536,122.536,0,0,1,14.437,2.5q5.329,1.253,10.588,2.982a4.87,4.87,0,0,1,3.317,5l-1.023,10.445a3.915,3.915,0,0,1-5.589,3.249,60.354,60.354,0,0,0-7.1-2.646,64.368,64.368,0,0,0-13.4-2.5l-1.229-.1V518.1c12.536,3.507,21.743,8.226,27.693,14.161q8.882,8.859,8.872,22.1,0,14.335-9.811,22.98-9.876,8.7-27.752,9.772v9.193a4.182,4.182,0,0,1-4.352,4.248l-.077,0a4.622,4.622,0,0,1-4.367-4.61v-9.069l-1.937-.087a127.285,127.285,0,0,1-16.078-1.714,104.541,104.541,0,0,1-11.111-2.555,4.788,4.788,0,0,1-3.485-4.95l1.2-13.427a4.245,4.245,0,0,1,5.936-3.5,87.293,87.293,0,0,0,9.771,3.208,85.688,85.688,0,0,0,15.623,2.61l.077-26.536q-18.051-4.466-26.962-13.229-8.92-8.8-8.931-22.513,0-14.177,9.682-21.866,9.621-7.641,27.294-7.622v-8.516A3.933,3.933,0,0,1,2450.74,462.16ZM2446.377,494q-5.578.406-8.695,3.066a8.94,8.94,0,0,0-3.12,7.161,9.613,9.613,0,0,0,2.886,7.116q2.881,2.853,8.928,4.555Zm7.713,48.05v24.334q6.064.012,9.307-2.893t3.239-8.192a11.192,11.192,0,0,0-3.01-8.009Q2460.609,544.1,2454.09,542.053Z" transform="translate(-2409.401 -462.14)" fill="url(#linear-gradient-14)"/>
        </g>
        <path id="Caminho_542" data-name="Caminho 542" d="M2313.916,505.424c2.723-26.892,27.438-38.277,24.213-63.014-1.988-15.246-13.544-28.1-26.435-38.128-39.1,4.1-69.336,36.477-69.336,78.823,0,48.357,39.289,88.878,86.141,90.451a81.35,81.35,0,0,0,13.312-.65C2323.2,554.39,2311.576,528.528,2313.916,505.424Z" transform="translate(-2221.572 -396.607)" opacity="0.3" fill="url(#linear-gradient-15)" style="mix-blend-mode: multiply;isolation: isolate"/>
      </g>
      <g id="Grupo_328" data-name="Grupo 328">
        <path id="Caminho_543" data-name="Caminho 543" d="M2130,255.929v.382a163.429,163.429,0,0,0-12.917-14.579c-.067-.162-.179-.325-.246-.487a86.089,86.089,0,0,0-8.224-15.181,83.8,83.8,0,0,0-13.135-15.033c-.621-.611-1.339-1.151-2-1.729-.339-.282-.681-.573-1.025-.855l-.5-.43c-.177-.143-.359-.272-.536-.411q-1.067-.809-2.139-1.633l-.535-.411-.563-.382c-.373-.258-.745-.516-1.117-.769-1.471-1.065-3.056-1.987-4.6-2.961-.788-.473-1.614-.907-2.416-1.356-.4-.225-.8-.454-1.208-.673s-.836-.415-1.246-.621a77.985,77.985,0,0,0-21.274-7.1c-.926-.153-1.853-.306-2.789-.459-.931-.129-1.876-.21-2.8-.32l-1.4-.158-1.409-.076-1.409-.086c-.468-.024-.931-.072-1.4-.062-.936,0-1.872-.014-2.813-.019-.229,0-.477-.014-.692,0l-.625.033-1.251.067-1.242.062c-.11,0-.186,0-.329.014l-1.275.1-1.7.119-1.275.1-.215.014-.076,0s-.444,0,.3.014l-2.755.406c-.453.072-.912.115-1.366.215l-1.351.272-1.351.267-.673.134c-.225.043-.444.11-.664.162-.883.224-1.767.444-2.646.673-.444.1-.874.248-1.3.377l-1.289.406-1.289.387-1.261.463c-.84.315-1.681.592-2.5.926s-1.628.688-2.435,1.036a69.984,69.984,0,0,0-17.109,10.763l-.927.774-.879.826c-.583.544-1.184,1.065-1.738,1.624-.024.019-.043.048-.067.067-1.079,1.117-2.173,2.168-3.142,3.324-.258.282-.511.568-.759.855l-.382.42-.353.449c-.473.583-.941,1.17-1.409,1.748-.115.143-.239.282-.354.43l-.32.449c-.22.3-.434.6-.649.893-.42.6-.879,1.155-1.256,1.776a66.421,66.421,0,0,0-7.273,14.106,64.488,64.488,0,0,0-3.223,12.578c-.062.473-.124.936-.186,1.394s-.143.9-.162,1.342q-.107,1.332-.215,2.54c-.048.821-.048,1.609-.081,2.349-.014.372-.038.736-.043,1.084.014.358.024.707.029,1.041.009.673.019,1.308.028,1.9a2.4,2.4,0,0,0,.034.368c.014.11.029.22.043.325.019.21.048.182.067.373.014.162.033.239.048.239h31.436l-19.1,21.178-44.4,48.564L1877.154,260.8h33.393a5.212,5.212,0,0,0,.153-1.022c.129-.969.267-1.915.42-3.066.086-.573.162-1.108.253-1.724.047-.3.09-.587.138-.9s.086-.645.148-.917c.234-1.156.478-2.373.736-3.672.138-.644.272-1.3.415-1.982s.334-1.365.516-2.072c.363-1.409.717-2.889,1.156-4.412q.7-2.271,1.457-4.718c.243-.821.563-1.628.859-2.464s.611-1.666.926-2.526a120.644,120.644,0,0,1,10.864-21.665,118.964,118.964,0,0,1,17.84-21.766c.865-.883,1.82-1.69,2.741-2.535.468-.416.931-.836,1.4-1.256l.711-.63.726-.6c.979-.8,1.967-1.6,2.951-2.411l.745-.6.773-.573c.521-.387,1.036-.769,1.557-1.151,2.039-1.562,4.231-2.97,6.408-4.422,1.1-.707,2.235-1.366,3.366-2.049.559-.334,1.127-.669,1.7-1.012l1.748-.945a113.091,113.091,0,0,1,30.218-11.265c1.332-.263,2.674-.53,4.011-.793s2.7-.42,4.045-.626l2.024-.286,2.039-.2,2.034-.2c.678-.062,1.351-.139,2.034-.162,1.356-.062,2.717-.224,4.078-.286.334-.014.678-.143,1.017-.143h1.022l2.029.115,2.03.067c.678,0,1.356.091,2.03.124l4.035.244c.917.014.315.024.549.029l.105.014.215.024.42.057.85.105,1.691.21.85.105.42.052.52.072,2.14.315,2.139.325,1.06.167c.349.057.659.134.993.2,1.3.277,2.607.559,3.911.831.65.129,1.29.315,1.929.482l1.925.511,1.91.511,1.886.6c1.251.406,2.507.788,3.734,1.227,1.227.458,2.445.917,3.663,1.375a104.892,104.892,0,0,1,26.054,14.927c.478.368.95.74,1.423,1.108s.917.769,1.371,1.16c.908.774,1.819,1.519,2.693,2.311,1.724,1.619,3.443,3.171,5.014,4.852.4.411.793.826,1.194,1.232l.587.611.564.635q1.125,1.275,2.221,2.531l.549.63.525.649c.339.434.688.865,1.027,1.294.678.864,1.39,1.686,2,2.578a105.176,105.176,0,0,1,8.82,14.082c1.185,2.268,2.24,4.527,3.171,6.757a99.592,99.592,0,0,1,5.893,19.063c.129.726.267,1.437.4,2.139s.272,1.38.353,2.063c.182,1.361.363,2.664.53,3.921.143,1.261.22,2.474.325,3.624.042.573.1,1.132.133,1.686s.134,1.079.158,1.6C2129.836,254.009,2130,255.007,2130,255.929Z" transform="translate(-1877.154 -155.749)" fill="url(#linear-gradient-16)"/>
        <path id="Caminho_544" data-name="Caminho 544" d="M2448.639,328.571v.382a163.4,163.4,0,0,0-12.917-14.579c-.067-.162-.179-.325-.246-.487a86.088,86.088,0,0,0-8.224-15.181,83.808,83.808,0,0,0-13.135-15.033c-.621-.611-1.339-1.151-2-1.729-.339-.282-.681-.573-1.025-.855l-.5-.43c-.177-.143-.359-.272-.536-.411q-1.067-.809-2.139-1.633l-.535-.411-.563-.382c-.373-.258-.745-.516-1.117-.769-1.47-1.065-3.056-1.987-4.6-2.961-.788-.473-1.614-.907-2.416-1.356-.4-.225-.8-.454-1.208-.673s-.836-.415-1.246-.621a77.991,77.991,0,0,0-21.274-7.1l-2.789-.459c-.931-.129-1.876-.21-2.8-.32l-1.4-.158-1.409-.076-1.409-.086c-.468-.024-.931-.072-1.4-.062-.936,0-1.872-.014-2.813-.019-.229,0-.478-.014-.692,0l-.625.033-1.251.067-1.241.062c-.11,0-.186,0-.33.014l-1.275.1-1.7.119-1.275.1-.215.014-.076,0s-.444,0,.3.014l-2.756.406c-.453.072-.912.115-1.365.215l-1.351.272-1.351.267-.674.134c-.224.043-.444.11-.664.162-.883.224-1.767.444-2.646.673-.444.1-.874.248-1.3.377l-1.289.406-1.289.387-1.261.463c-.84.315-1.681.592-2.5.926s-1.628.688-2.435,1.036a69.987,69.987,0,0,0-17.11,10.763l-.926.774-.879.826c-.583.544-1.184,1.065-1.738,1.624-.024.019-.043.048-.067.067,14.111-17.473,36.97-28.823,62.765-28.823,26.431,0,49.777,11.914,63.788,30.113,1.184,2.268,2.24,4.527,3.171,6.757a99.574,99.574,0,0,1,5.893,19.063c.129.726.268,1.437.4,2.139s.272,1.38.353,2.063c.182,1.361.363,2.664.53,3.921.143,1.261.22,2.474.325,3.624.042.573.1,1.132.133,1.686s.134,1.079.158,1.6C2448.472,326.651,2448.639,327.649,2448.639,328.571Z" transform="translate(-2195.79 -228.391)" opacity="0.4" fill="url(#linear-gradient-17)" style="mix-blend-mode: multiply;isolation: isolate"/>
      </g>
    </g>
    <g id="Grupo_331" data-name="Grupo 331" transform="translate(1106.108 377.232)">
      <path id="Caminho_545" data-name="Caminho 545" d="M2410.014,1207.291s2.11-7.911.615-9.933-10.636-10.109-9.758-7.472a16.974,16.974,0,0,0,2.2,4.4s-4.923,2.286-1.758,5.714,4.221,4.219,4.4,7.3S2407.9,1211.423,2410.014,1207.291Z" transform="translate(-2399.955 -1136.487)" fill="url(#linear-gradient-18)"/>
      <path id="Caminho_546" data-name="Caminho 546" d="M2694.6,2543.381s1.117,6.842.975,9.277-27.163,3.68-27.436,1.856,4.467-4.725,7.8-5.748,13.1-3.756,13.1-3.756Z" transform="translate(-2596.728 -2131.098)" fill="url(#linear-gradient-19)"/>
      <path id="Caminho_547" data-name="Caminho 547" d="M2743.149,2516.91l.862,8.507s3.138,2.074,5.9.473l1.384-9.26Z" transform="translate(-2651.836 -2111.448)" fill="url(#linear-gradient-20)"/>
      <path id="Caminho_548" data-name="Caminho 548" d="M2876.229,2585.167s1.118,6.842.976,9.277-27.164,3.68-27.437,1.855,4.467-4.725,7.8-5.749,13.1-3.756,13.1-3.756Z" transform="translate(-2730.146 -2161.792)" fill="url(#linear-gradient-21)"/>
      <path id="Caminho_549" data-name="Caminho 549" d="M2924.778,2558.7l.862,8.508s3.138,2.075,5.9.473l1.384-9.26Z" transform="translate(-2785.254 -2142.142)" fill="url(#linear-gradient-22)"/>
      <path id="Caminho_550" data-name="Caminho 550" d="M2726.835,1670.929l-9.37,19c-2.512,36.137-3.76,75.432-2.958,117.455.6,31.265,2.267,60.883,4.667,88.684l12.7-.583c6.123-12.153,13.353-30.566,14.018-53.3.694-23.709-6.494-26.856-6.038-49.557.591-29.422,12.928-37.272,19.5-72.662a189.518,189.518,0,0,0,2.195-52.659Z" transform="translate(-2630.619 -1487.567)" fill="url(#linear-gradient-23)"/>
      <path id="Caminho_551" data-name="Caminho 551" d="M2773.575,1667.307l-18.751,1.957c-11.251,19.579-14.392,39.958-12.417,48.972,2.793,12.753,10.182,16.839,9.776,29.643-.4,12.67-7.867,15.955-12.6,30.888-3.278,10.339-2.413,19.845-.548,38.436,3.755,37.447,12.8,48.9,5.223,61.176-2.152,3.488-6.03,7.643-13.627,10.815.186,2.3.369,4.6.565,6.872q6.352-.29,12.7-.583c6.124-12.155,13.353-30.567,14.018-53.3.694-23.709-6.494-26.857-6.038-49.557.591-29.422,12.929-37.271,19.5-72.662A189.519,189.519,0,0,0,2773.575,1667.307Z" transform="translate(-2642.639 -1487.567)" opacity="0.3" fill="url(#linear-gradient-24)" style="mix-blend-mode: multiply;isolation: isolate"/>
      <path id="Caminho_552" data-name="Caminho 552" d="M2824.927,1699.119c5.863,31.971,11.042,66.189,15.083,102.478,4.878,43.816,7.482,85.124,8.506,123.476l13.944.395c18.316-36.234,19.435-60.8,16.794-76.8-1.018-6.163-3.782-18.249-4.413-36.31-.439-12.591.364-22.172,1.367-33.69,2.2-25.254,4.869-30.767,5.253-50.084.36-18.129.435-27.3-4.74-32.656C2863.087,1681.827,2827.618,1697.871,2824.927,1699.119Z" transform="translate(-2711.907 -1504.357)" fill="url(#linear-gradient-25)"/>
      <path id="Caminho_553" data-name="Caminho 553" d="M2411.63,1193.485l-9.273-.647c-7.292,29.468-2.062,58.054,14.4,68.567,25.715,16.425,73.505-14.52,83.862-48.215,4.546-14.79,3.511-36.134-5.575-40.28-2.521-1.151-6.435-1.33-14.913,3.43-25.319,14.215-25.985,41.082-38.856,43.358C2435.548,1220.709,2426.306,1217.061,2411.63,1193.485Z" transform="translate(-2399.139 -1123.9)" fill="url(#linear-gradient-26)"/>
      <path id="Caminho_554" data-name="Caminho 554" d="M2675.093,1324.122c-4.454-7.39,1.14-14.517,2.413-28.517,1.443-15.867-4.669-18.509-10.715-44.806-4.02-17.489-7.879-34.278-3.273-53.931,2.208-9.419,5.952-25.394,19.173-33.11,6.823-3.982,16.139-3.584,34.491-2.624,22.7,1.187,34.042,1.78,42.505,6.236,1.239.653,26.985,14.656,28.757,37.483,1.8,23.233-23.5,26.355-26.872,57.337-1.515,13.908,1.186,35.3,2.937,49.174,1.682,13.322,2.839,16.733.21,20.766-6.337,9.721-25.735,6.95-64.533,1.41C2684.967,1331.369,2678.417,1329.636,2675.093,1324.122Z" transform="translate(-2591.804 -1115.28)" fill="url(#linear-gradient-27)"/>
      <path id="Caminho_555" data-name="Caminho 555" d="M2767.286,1334.16c1.641,6.038,7.541,10.549,11.648,25.236.887,3.172,7.2,25.754-.99,31.313-4.732,3.21-8.98-2.872-20.465-3.666-19.9-1.377-29.382,15.349-42.382,10.782a17.8,17.8,0,0,1-8.206-6.366c-.592,3.5-.491,6.537,1.364,9.615,3.323,5.514,9.874,7.246,25.092,9.42,38.8,5.54,58.2,8.311,64.533-1.41,2.629-4.033,1.472-7.444-.21-20.766-1.751-13.874-4.451-35.265-2.937-49.174,3.375-30.982,28.676-34.1,26.872-57.337a36.042,36.042,0,0,0-5.822-16.555C2783.687,1278.239,2762.129,1315.184,2767.286,1334.16Z" transform="translate(-2624.966 -1192.231)" opacity="0.3" fill="url(#linear-gradient-28)" style="mix-blend-mode: multiply;isolation: isolate"/>
      <path id="Caminho_556" data-name="Caminho 556" d="M3019.889,1693.765l-6.421,4.1a15.037,15.037,0,0,0-7.991-4.935c-4.7-1.032-10.086.448-10.212,1.947-.1,1.2,3.182,2.412,3.689,2.6,4.1,1.512,7.138.256,8.794,1.9a12.548,12.548,0,0,0,2.995,2.67,9.228,9.228,0,0,0,1.147.592c2.735,1.063,7.426-3.7,7.829-4.113Z" transform="translate(-2837.03 -1506.136)" fill="url(#linear-gradient-29)"/>
      <path id="Caminho_557" data-name="Caminho 557" d="M3003.108,1231.782c-4.645-11.126-7.864-28.161-.526-53.459,48.347,19.05,73,64.212,63.376,100.013-7.936,29.513-36.811,43.888-43.251,46.913q-2.248-5.118-4.5-10.234c7.464-8.312,15.876-20.6,14.686-34.628C3031.247,1260.943,3012.512,1254.307,3003.108,1231.782Z" transform="translate(-2839.22 -1128.377)" fill="url(#linear-gradient-30)"/>
      <path id="Caminho_558" data-name="Caminho 558" d="M2807.774,1076.682s.382,8.457,3.008,14.791c2.372,5.724,14.851,9.323,17.38,10.6s-4.739,5.012-12.038,5.746-28.144-.923-31.9-3.691,3.02-2.559,8.23-4.472,8.222-12.1,7.3-16.726S2807.774,1076.682,2807.774,1076.682Z" transform="translate(-2681.208 -1053.716)" fill="url(#linear-gradient-31)"/>
      <path id="Caminho_559" data-name="Caminho 559" d="M2818.336,1010.059c-3.787-3.721-4.316-4.156-4.729-5.442-1.655-5.163,2.349-12.232,7.6-13.973.273-.09,3.8-1.218,5.14.311,1.142,1.3-.538,3.09.261,5.591.748,2.341,2.778,2.517,6.54,5.587,3.1,2.528,5.025,4.1,5.469,6.312.916,4.559-4.6,11.166-9.488,10.986C2827.372,1019.365,2826.894,1018.467,2818.336,1010.059Z" transform="translate(-2703.314 -990.159)" fill="url(#linear-gradient-32)"/>
      <g id="Grupo_330" data-name="Grupo 330" transform="translate(111.559 16.606)">
        <path id="Caminho_560" data-name="Caminho 560" d="M2833.2,1066.089a10.759,10.759,0,0,1-10.159,3.052c-5.491-1.349-4.09-13.952-.071-15.965a7.123,7.123,0,0,1,5.608.267c1.083.522,1.384,1.063,3.168,1.881,1.646.754,2.168.649,2.61,1.18.554.664.792,2.093-.943,5.542,1.251-.885,2.6-1.071,3.422-.485a1.927,1.927,0,0,1,.612.852C2837.971,1063.974,2836.348,1065.561,2833.2,1066.089Z" transform="translate(-2819.423 -1052.72)" fill="url(#linear-gradient-33)"/>
      </g>
    </g>
    <g id="Grupo_333" data-name="Grupo 333" transform="translate(953.171 363.723)">
      <path id="Caminho_561" data-name="Caminho 561" d="M1951.212,1020.146c0,34.7-27.131,61.992-61.807,60.927-36.088-1.108-66.44-32.276-66.44-69.573s30.352-64.372,66.44-60.614C1924.081,954.5,1951.212,985.448,1951.212,1020.146Z" transform="translate(-1822.965 -947.545)" fill="url(#linear-gradient-10)"/>
      <path id="Caminho_562" data-name="Caminho 562" d="M1986.513,1008.875c0,34.7-27.131,61.992-61.808,60.927-36.088-1.108-66.44-32.276-66.44-69.573s30.352-64.372,66.44-60.615C1959.382,943.225,1986.513,974.177,1986.513,1008.875Z" transform="translate(-1848.896 -939.266)" fill="url(#linear-gradient-11)"/>
      <path id="Caminho_563" data-name="Caminho 563" d="M1992.467,1016.971c0,33.169-25.959,59.218-59.086,58.145-34.413-1.114-63.3-30.859-63.3-66.4s28.892-61.386,63.3-57.861C1966.507,954.253,1992.467,983.8,1992.467,1016.971Z" transform="translate(-1857.571 -947.545)" fill="url(#linear-gradient-12)"/>
      <path id="Caminho_564" data-name="Caminho 564" d="M1996.7,1022.751c0,32.075-25.119,57.234-57.137,56.158-33.217-1.115-61.072-29.843-61.072-64.128s27.855-59.256,61.072-55.893C1971.576,962.13,1996.7,990.676,1996.7,1022.751Z" transform="translate(-1863.749 -953.457)" fill="url(#linear-gradient-13)"/>
      <g id="Grupo_332" data-name="Grupo 332" transform="translate(46.173 16.329)">
        <path id="Caminho_565" data-name="Caminho 565" d="M2026.224,1000.8h0a3.492,3.492,0,0,1,3.083,3.426v5.905a86.837,86.837,0,0,1,10.235,1.776q3.779.888,7.507,2.114a3.453,3.453,0,0,1,2.352,3.544l-.726,7.406a2.776,2.776,0,0,1-3.963,2.3,42.8,42.8,0,0,0-5.036-1.876,45.641,45.641,0,0,0-9.5-1.775l-.871-.072v16.913c8.888,2.487,15.416,5.832,19.634,10.04a21.224,21.224,0,0,1,6.29,15.672q0,10.163-6.955,16.292-7,6.17-19.676,6.928v6.518a2.965,2.965,0,0,1-3.085,3.012l-.055,0a3.277,3.277,0,0,1-3.1-3.268v-6.43l-1.374-.062a90.3,90.3,0,0,1-11.4-1.215,74.125,74.125,0,0,1-7.877-1.812,3.4,3.4,0,0,1-2.471-3.51l.854-9.519a3.01,3.01,0,0,1,4.208-2.484,61.8,61.8,0,0,0,6.928,2.274,60.736,60.736,0,0,0,11.076,1.851l.055-18.813q-12.8-3.166-19.115-9.38-6.324-6.242-6.332-15.961,0-10.051,6.865-15.5c4.547-3.612,11.011-5.408,19.351-5.4v-6.037A2.789,2.789,0,0,1,2026.224,1000.8Zm-3.094,22.576a10.419,10.419,0,0,0-6.164,2.173,6.337,6.337,0,0,0-2.212,5.077,6.816,6.816,0,0,0,2.046,5.045,14.5,14.5,0,0,0,6.33,3.229Zm5.468,34.066v17.252q4.3.009,6.6-2.051a7.384,7.384,0,0,0,2.3-5.807,7.934,7.934,0,0,0-2.134-5.678A15.666,15.666,0,0,0,2028.6,1057.441Z" transform="translate(-1996.915 -1000.785)" fill="url(#linear-gradient-14)"/>
      </g>
      <path id="Caminho_566" data-name="Caminho 566" d="M1929.219,1031.472c1.931-19.066,19.453-27.138,17.166-44.676-1.409-10.809-9.6-19.919-18.742-27.032-27.721,2.907-49.157,25.861-49.157,55.884,0,34.284,27.855,63.013,61.072,64.128a57.674,57.674,0,0,0,9.438-.461C1935.8,1066.189,1927.56,1047.853,1929.219,1031.472Z" transform="translate(-1863.749 -954.324)" opacity="0.3" fill="url(#linear-gradient-15)" style="mix-blend-mode: multiply;isolation: isolate"/>
    </g>
  </g>
</svg>
